<?xml version="1.0" encoding="utf-8" standalone="no"?>
<!DOCTYPE svg PUBLIC "-//W3C//DTD SVG 1.1//EN"
  "http://www.w3.org/Graphics/SVG/1.1/DTD/svg11.dtd">
<svg xmlns:xlink="http://www.w3.org/1999/xlink" width="669.902688pt" height="646.828pt" viewBox="0 0 669.902688 646.828" xmlns="http://www.w3.org/2000/svg" version="1.1">
 <metadata>
  <rdf:RDF xmlns:dc="http://purl.org/dc/elements/1.1/" xmlns:cc="http://creativecommons.org/ns#" xmlns:rdf="http://www.w3.org/1999/02/22-rdf-syntax-ns#">
   <cc:Work>
    <dc:type rdf:resource="http://purl.org/dc/dcmitype/StillImage"/>
    <dc:date>2026-03-18T11:30:36.008454</dc:date>
    <dc:format>image/svg+xml</dc:format>
    <dc:creator>
     <cc:Agent>
      <dc:title>Matplotlib v3.7.5, https://matplotlib.org/</dc:title>
     </cc:Agent>
    </dc:creator>
   </cc:Work>
  </rdf:RDF>
 </metadata>
 <defs>
  <style type="text/css">*{stroke-linejoin: round; stroke-linecap: butt}</style>
 </defs>
 <g id="figure_1">
  <g id="patch_1">
   <path d="M 0 646.828 
L 669.902688 646.828 
L 669.902688 0 
L 0 0 
L 0 646.828 
z
" style="fill: none"/>
  </g>
  <g id="axes_1">
   <g id="patch_2">
    <path d="M 555.802688 263.788 
C 555.802688 234.004897 549.936066 204.511397 538.538565 176.995398 
C 527.141065 149.479398 510.43434 124.476016 489.374505 103.416182 
C 468.314671 82.356348 443.311289 65.649622 415.79529 54.252122 
C 388.279291 42.854622 358.785791 36.988 329.002688 36.988 
C 299.219584 36.988 269.726084 42.854622 242.210085 54.252122 
C 214.694086 65.649622 189.690704 82.356348 168.63087 103.416182 
C 147.571035 124.476016 130.86431 149.479398 119.46681 176.995398 
C 108.069309 204.511397 102.202688 234.004897 102.202688 263.788 
C 102.202688 293.571103 108.069309 323.064603 119.46681 350.580602 
C 130.86431 378.096602 147.571035 403.099984 168.63087 424.159818 
C 189.690704 445.219652 214.694086 461.926378 242.210085 473.323878 
C 269.726084 484.721378 299.219584 490.588 329.002688 490.588 
C 358.785791 490.588 388.279291 484.721378 415.79529 473.323878 
C 443.311289 461.926378 468.314671 445.219652 489.374505 424.159818 
C 510.43434 403.099984 527.141065 378.096602 538.538565 350.580602 
C 549.936066 323.064603 555.802688 293.571103 555.802688 263.788 
M 329.002688 263.788 
C 329.002688 263.788 329.002688 263.788 329.002688 263.788 
C 329.002688 263.788 329.002688 263.788 329.002688 263.788 
C 329.002688 263.788 329.002688 263.788 329.002688 263.788 
C 329.002688 263.788 329.002688 263.788 329.002688 263.788 
C 329.002688 263.788 329.002688 263.788 329.002688 263.788 
C 329.002688 263.788 329.002688 263.788 329.002688 263.788 
C 329.002688 263.788 329.002688 263.788 329.002688 263.788 
C 329.002688 263.788 329.002688 263.788 329.002688 263.788 
C 329.002688 263.788 329.002688 263.788 329.002688 263.788 
C 329.002688 263.788 329.002688 263.788 329.002688 263.788 
C 329.002688 263.788 329.002688 263.788 329.002688 263.788 
C 329.002688 263.788 329.002688 263.788 329.002688 263.788 
C 329.002688 263.788 329.002688 263.788 329.002688 263.788 
C 329.002688 263.788 329.002688 263.788 329.002688 263.788 
C 329.002688 263.788 329.002688 263.788 329.002688 263.788 
C 329.002688 263.788 329.002688 263.788 329.002688 263.788 
L 329.002688 263.788 
z
" style="fill: none"/>
   </g>
   <g id="patch_3">
    <path d="M 535.184506 263.788 
L 392.716373 67.697438 
L 303.981998 245.609405 
L 162.198093 384.978632 
L 338.55974 293.201584 
z
" clip-path="url(#p6f2ffd03c8)" style="fill: #408a71; opacity: 0.25; stroke: #408a71; stroke-linejoin: miter"/>
   </g>
   <g id="patch_4">
    <path d="M 359.92996 263.788 
L 338.55974 234.374416 
L 162.198093 142.597368 
L 303.981998 281.966595 
L 392.716373 459.878562 
z
" clip-path="url(#p6f2ffd03c8)" style="fill: #b153d7; opacity: 0.25; stroke: #b153d7; stroke-linejoin: miter"/>
   </g>
   <g id="matplotlib.axis_1">
    <g id="xtick_1">
     <g id="line2d_1">
      <path d="M 329.002688 263.788 
L 555.802688 263.788 
" clip-path="url(#p6f2ffd03c8)" style="fill: none; stroke: #b0b0b0; stroke-width: 0.8; stroke-linecap: square"/>
     </g>
     <g id="text_1">
      <!-- Avg Speed -->
      <g transform="translate(531.051516 267.324406) scale(0.13 -0.13)">
       <defs>
        <path id="DejaVuSans-Bold-41" d="M 3419 850 
L 1538 850 
L 1241 0 
L 31 0 
L 1759 4666 
L 3194 4666 
L 4922 0 
L 3713 0 
L 3419 850 
z
M 1838 1716 
L 3116 1716 
L 2478 3572 
L 1838 1716 
z
" transform="scale(0.015625)"/>
        <path id="DejaVuSans-Bold-76" d="M 97 3500 
L 1216 3500 
L 2088 1081 
L 2956 3500 
L 4078 3500 
L 2700 0 
L 1472 0 
L 97 3500 
z
" transform="scale(0.015625)"/>
        <path id="DejaVuSans-Bold-67" d="M 2919 594 
Q 2688 288 2409 144 
Q 2131 0 1766 0 
Q 1125 0 706 504 
Q 288 1009 288 1791 
Q 288 2575 706 3076 
Q 1125 3578 1766 3578 
Q 2131 3578 2409 3434 
Q 2688 3291 2919 2981 
L 2919 3500 
L 4044 3500 
L 4044 353 
Q 4044 -491 3511 -936 
Q 2978 -1381 1966 -1381 
Q 1638 -1381 1331 -1331 
Q 1025 -1281 716 -1178 
L 716 -306 
Q 1009 -475 1290 -558 
Q 1572 -641 1856 -641 
Q 2406 -641 2662 -400 
Q 2919 -159 2919 353 
L 2919 594 
z
M 2181 2772 
Q 1834 2772 1640 2515 
Q 1447 2259 1447 1791 
Q 1447 1309 1634 1061 
Q 1822 813 2181 813 
Q 2531 813 2725 1069 
Q 2919 1325 2919 1791 
Q 2919 2259 2725 2515 
Q 2531 2772 2181 2772 
z
" transform="scale(0.015625)"/>
        <path id="DejaVuSans-Bold-20" transform="scale(0.015625)"/>
        <path id="DejaVuSans-Bold-53" d="M 3834 4519 
L 3834 3531 
Q 3450 3703 3084 3790 
Q 2719 3878 2394 3878 
Q 1963 3878 1756 3759 
Q 1550 3641 1550 3391 
Q 1550 3203 1689 3098 
Q 1828 2994 2194 2919 
L 2706 2816 
Q 3484 2659 3812 2340 
Q 4141 2022 4141 1434 
Q 4141 663 3683 286 
Q 3225 -91 2284 -91 
Q 1841 -91 1394 -6 
Q 947 78 500 244 
L 500 1259 
Q 947 1022 1364 901 
Q 1781 781 2169 781 
Q 2563 781 2772 912 
Q 2981 1044 2981 1288 
Q 2981 1506 2839 1625 
Q 2697 1744 2272 1838 
L 1806 1941 
Q 1106 2091 782 2419 
Q 459 2747 459 3303 
Q 459 4000 909 4375 
Q 1359 4750 2203 4750 
Q 2588 4750 2994 4692 
Q 3400 4634 3834 4519 
z
" transform="scale(0.015625)"/>
        <path id="DejaVuSans-Bold-70" d="M 1656 506 
L 1656 -1331 
L 538 -1331 
L 538 3500 
L 1656 3500 
L 1656 2988 
Q 1888 3294 2169 3439 
Q 2450 3584 2816 3584 
Q 3463 3584 3878 3070 
Q 4294 2556 4294 1747 
Q 4294 938 3878 423 
Q 3463 -91 2816 -91 
Q 2450 -91 2169 54 
Q 1888 200 1656 506 
z
M 2400 2772 
Q 2041 2772 1848 2508 
Q 1656 2244 1656 1747 
Q 1656 1250 1848 986 
Q 2041 722 2400 722 
Q 2759 722 2948 984 
Q 3138 1247 3138 1747 
Q 3138 2247 2948 2509 
Q 2759 2772 2400 2772 
z
" transform="scale(0.015625)"/>
        <path id="DejaVuSans-Bold-65" d="M 4031 1759 
L 4031 1441 
L 1416 1441 
Q 1456 1047 1700 850 
Q 1944 653 2381 653 
Q 2734 653 3104 758 
Q 3475 863 3866 1075 
L 3866 213 
Q 3469 63 3072 -14 
Q 2675 -91 2278 -91 
Q 1328 -91 801 392 
Q 275 875 275 1747 
Q 275 2603 792 3093 
Q 1309 3584 2216 3584 
Q 3041 3584 3536 3087 
Q 4031 2591 4031 1759 
z
M 2881 2131 
Q 2881 2450 2695 2645 
Q 2509 2841 2209 2841 
Q 1884 2841 1681 2658 
Q 1478 2475 1428 2131 
L 2881 2131 
z
" transform="scale(0.015625)"/>
        <path id="DejaVuSans-Bold-64" d="M 2919 2988 
L 2919 4863 
L 4044 4863 
L 4044 0 
L 2919 0 
L 2919 506 
Q 2688 197 2409 53 
Q 2131 -91 1766 -91 
Q 1119 -91 703 423 
Q 288 938 288 1747 
Q 288 2556 703 3070 
Q 1119 3584 1766 3584 
Q 2128 3584 2408 3439 
Q 2688 3294 2919 2988 
z
M 2181 722 
Q 2541 722 2730 984 
Q 2919 1247 2919 1747 
Q 2919 2247 2730 2509 
Q 2541 2772 2181 2772 
Q 1825 2772 1636 2509 
Q 1447 2247 1447 1747 
Q 1447 1247 1636 984 
Q 1825 722 2181 722 
z
" transform="scale(0.015625)"/>
       </defs>
       <use xlink:href="#DejaVuSans-Bold-41"/>
       <use xlink:href="#DejaVuSans-Bold-76" x="73.767578"/>
       <use xlink:href="#DejaVuSans-Bold-67" x="138.953125"/>
       <use xlink:href="#DejaVuSans-Bold-20" x="210.535156"/>
       <use xlink:href="#DejaVuSans-Bold-53" x="245.349609"/>
       <use xlink:href="#DejaVuSans-Bold-70" x="317.371094"/>
       <use xlink:href="#DejaVuSans-Bold-65" x="388.953125"/>
       <use xlink:href="#DejaVuSans-Bold-65" x="456.775391"/>
       <use xlink:href="#DejaVuSans-Bold-64" x="524.597656"/>
      </g>
     </g>
    </g>
    <g id="xtick_2">
     <g id="line2d_2">
      <path d="M 329.002688 263.788 
L 399.087742 48.088382 
" clip-path="url(#p6f2ffd03c8)" style="fill: none; stroke: #b0b0b0; stroke-width: 0.8; stroke-linecap: square"/>
     </g>
     <g id="text_2">
      <!-- Total Steps -->
      <g transform="translate(362.673198 38.360778) scale(0.13 -0.13)">
       <defs>
        <path id="DejaVuSans-Bold-54" d="M 31 4666 
L 4331 4666 
L 4331 3756 
L 2784 3756 
L 2784 0 
L 1581 0 
L 1581 3756 
L 31 3756 
L 31 4666 
z
" transform="scale(0.015625)"/>
        <path id="DejaVuSans-Bold-6f" d="M 2203 2784 
Q 1831 2784 1636 2517 
Q 1441 2250 1441 1747 
Q 1441 1244 1636 976 
Q 1831 709 2203 709 
Q 2569 709 2762 976 
Q 2956 1244 2956 1747 
Q 2956 2250 2762 2517 
Q 2569 2784 2203 2784 
z
M 2203 3584 
Q 3106 3584 3614 3096 
Q 4122 2609 4122 1747 
Q 4122 884 3614 396 
Q 3106 -91 2203 -91 
Q 1297 -91 786 396 
Q 275 884 275 1747 
Q 275 2609 786 3096 
Q 1297 3584 2203 3584 
z
" transform="scale(0.015625)"/>
        <path id="DejaVuSans-Bold-74" d="M 1759 4494 
L 1759 3500 
L 2913 3500 
L 2913 2700 
L 1759 2700 
L 1759 1216 
Q 1759 972 1856 886 
Q 1953 800 2241 800 
L 2816 800 
L 2816 0 
L 1856 0 
Q 1194 0 917 276 
Q 641 553 641 1216 
L 641 2700 
L 84 2700 
L 84 3500 
L 641 3500 
L 641 4494 
L 1759 4494 
z
" transform="scale(0.015625)"/>
        <path id="DejaVuSans-Bold-61" d="M 2106 1575 
Q 1756 1575 1579 1456 
Q 1403 1338 1403 1106 
Q 1403 894 1545 773 
Q 1688 653 1941 653 
Q 2256 653 2472 879 
Q 2688 1106 2688 1447 
L 2688 1575 
L 2106 1575 
z
M 3816 1997 
L 3816 0 
L 2688 0 
L 2688 519 
Q 2463 200 2181 54 
Q 1900 -91 1497 -91 
Q 953 -91 614 226 
Q 275 544 275 1050 
Q 275 1666 698 1953 
Q 1122 2241 2028 2241 
L 2688 2241 
L 2688 2328 
Q 2688 2594 2478 2717 
Q 2269 2841 1825 2841 
Q 1466 2841 1156 2769 
Q 847 2697 581 2553 
L 581 3406 
Q 941 3494 1303 3539 
Q 1666 3584 2028 3584 
Q 2975 3584 3395 3211 
Q 3816 2838 3816 1997 
z
" transform="scale(0.015625)"/>
        <path id="DejaVuSans-Bold-6c" d="M 538 4863 
L 1656 4863 
L 1656 0 
L 538 0 
L 538 4863 
z
" transform="scale(0.015625)"/>
        <path id="DejaVuSans-Bold-73" d="M 3272 3391 
L 3272 2541 
Q 2913 2691 2578 2766 
Q 2244 2841 1947 2841 
Q 1628 2841 1473 2761 
Q 1319 2681 1319 2516 
Q 1319 2381 1436 2309 
Q 1553 2238 1856 2203 
L 2053 2175 
Q 2913 2066 3209 1816 
Q 3506 1566 3506 1031 
Q 3506 472 3093 190 
Q 2681 -91 1863 -91 
Q 1516 -91 1145 -36 
Q 775 19 384 128 
L 384 978 
Q 719 816 1070 734 
Q 1422 653 1784 653 
Q 2113 653 2278 743 
Q 2444 834 2444 1013 
Q 2444 1163 2330 1236 
Q 2216 1309 1875 1350 
L 1678 1375 
Q 931 1469 631 1722 
Q 331 1975 331 2491 
Q 331 3047 712 3315 
Q 1094 3584 1881 3584 
Q 2191 3584 2531 3537 
Q 2872 3491 3272 3391 
z
" transform="scale(0.015625)"/>
       </defs>
       <use xlink:href="#DejaVuSans-Bold-54"/>
       <use xlink:href="#DejaVuSans-Bold-6f" x="54.962891"/>
       <use xlink:href="#DejaVuSans-Bold-74" x="123.664062"/>
       <use xlink:href="#DejaVuSans-Bold-61" x="171.466797"/>
       <use xlink:href="#DejaVuSans-Bold-6c" x="238.947266"/>
       <use xlink:href="#DejaVuSans-Bold-20" x="273.224609"/>
       <use xlink:href="#DejaVuSans-Bold-53" x="308.039062"/>
       <use xlink:href="#DejaVuSans-Bold-74" x="380.060547"/>
       <use xlink:href="#DejaVuSans-Bold-65" x="427.863281"/>
       <use xlink:href="#DejaVuSans-Bold-70" x="495.685547"/>
       <use xlink:href="#DejaVuSans-Bold-73" x="567.267578"/>
      </g>
     </g>
    </g>
    <g id="xtick_3">
     <g id="line2d_3">
      <path d="M 329.002688 263.788 
L 145.517633 130.478305 
" clip-path="url(#p6f2ffd03c8)" style="fill: none; stroke: #b0b0b0; stroke-width: 0.8; stroke-linecap: square"/>
     </g>
     <g id="text_3">
      <!-- Smoothness -->
      <g transform="translate(89.298739 125.836499) scale(0.13 -0.13)">
       <defs>
        <path id="DejaVuSans-Bold-6d" d="M 3781 2919 
Q 3994 3244 4286 3414 
Q 4578 3584 4928 3584 
Q 5531 3584 5847 3212 
Q 6163 2841 6163 2131 
L 6163 0 
L 5038 0 
L 5038 1825 
Q 5041 1866 5042 1909 
Q 5044 1953 5044 2034 
Q 5044 2406 4934 2573 
Q 4825 2741 4581 2741 
Q 4263 2741 4089 2478 
Q 3916 2216 3909 1719 
L 3909 0 
L 2784 0 
L 2784 1825 
Q 2784 2406 2684 2573 
Q 2584 2741 2328 2741 
Q 2006 2741 1831 2477 
Q 1656 2213 1656 1722 
L 1656 0 
L 531 0 
L 531 3500 
L 1656 3500 
L 1656 2988 
Q 1863 3284 2130 3434 
Q 2397 3584 2719 3584 
Q 3081 3584 3359 3409 
Q 3638 3234 3781 2919 
z
" transform="scale(0.015625)"/>
        <path id="DejaVuSans-Bold-68" d="M 4056 2131 
L 4056 0 
L 2931 0 
L 2931 347 
L 2931 1625 
Q 2931 2084 2911 2256 
Q 2891 2428 2841 2509 
Q 2775 2619 2662 2680 
Q 2550 2741 2406 2741 
Q 2056 2741 1856 2470 
Q 1656 2200 1656 1722 
L 1656 0 
L 538 0 
L 538 4863 
L 1656 4863 
L 1656 2988 
Q 1909 3294 2193 3439 
Q 2478 3584 2822 3584 
Q 3428 3584 3742 3212 
Q 4056 2841 4056 2131 
z
" transform="scale(0.015625)"/>
        <path id="DejaVuSans-Bold-6e" d="M 4056 2131 
L 4056 0 
L 2931 0 
L 2931 347 
L 2931 1631 
Q 2931 2084 2911 2256 
Q 2891 2428 2841 2509 
Q 2775 2619 2662 2680 
Q 2550 2741 2406 2741 
Q 2056 2741 1856 2470 
Q 1656 2200 1656 1722 
L 1656 0 
L 538 0 
L 538 3500 
L 1656 3500 
L 1656 2988 
Q 1909 3294 2193 3439 
Q 2478 3584 2822 3584 
Q 3428 3584 3742 3212 
Q 4056 2841 4056 2131 
z
" transform="scale(0.015625)"/>
       </defs>
       <use xlink:href="#DejaVuSans-Bold-53"/>
       <use xlink:href="#DejaVuSans-Bold-6d" x="72.021484"/>
       <use xlink:href="#DejaVuSans-Bold-6f" x="176.220703"/>
       <use xlink:href="#DejaVuSans-Bold-6f" x="244.921875"/>
       <use xlink:href="#DejaVuSans-Bold-74" x="313.623047"/>
       <use xlink:href="#DejaVuSans-Bold-68" x="361.425781"/>
       <use xlink:href="#DejaVuSans-Bold-6e" x="432.617188"/>
       <use xlink:href="#DejaVuSans-Bold-65" x="503.808594"/>
       <use xlink:href="#DejaVuSans-Bold-73" x="571.630859"/>
       <use xlink:href="#DejaVuSans-Bold-73" x="631.152344"/>
      </g>
     </g>
    </g>
    <g id="xtick_4">
     <g id="line2d_4">
      <path d="M 329.002688 263.788 
L 145.517633 397.097695 
" clip-path="url(#p6f2ffd03c8)" style="fill: none; stroke: #b0b0b0; stroke-width: 0.8; stroke-linecap: square"/>
     </g>
     <g id="text_4">
      <!-- Lane Changes -->
      <g transform="translate(83.023192 408.863095) scale(0.13 -0.13)">
       <defs>
        <path id="DejaVuSans-Bold-4c" d="M 588 4666 
L 1791 4666 
L 1791 909 
L 3903 909 
L 3903 0 
L 588 0 
L 588 4666 
z
" transform="scale(0.015625)"/>
        <path id="DejaVuSans-Bold-43" d="M 4288 256 
Q 3956 84 3597 -3 
Q 3238 -91 2847 -91 
Q 1681 -91 1000 561 
Q 319 1213 319 2328 
Q 319 3447 1000 4098 
Q 1681 4750 2847 4750 
Q 3238 4750 3597 4662 
Q 3956 4575 4288 4403 
L 4288 3438 
Q 3953 3666 3628 3772 
Q 3303 3878 2944 3878 
Q 2300 3878 1931 3465 
Q 1563 3053 1563 2328 
Q 1563 1606 1931 1193 
Q 2300 781 2944 781 
Q 3303 781 3628 887 
Q 3953 994 4288 1222 
L 4288 256 
z
" transform="scale(0.015625)"/>
       </defs>
       <use xlink:href="#DejaVuSans-Bold-4c"/>
       <use xlink:href="#DejaVuSans-Bold-61" x="63.720703"/>
       <use xlink:href="#DejaVuSans-Bold-6e" x="131.201172"/>
       <use xlink:href="#DejaVuSans-Bold-65" x="202.392578"/>
       <use xlink:href="#DejaVuSans-Bold-20" x="270.214844"/>
       <use xlink:href="#DejaVuSans-Bold-43" x="305.029297"/>
       <use xlink:href="#DejaVuSans-Bold-68" x="378.417969"/>
       <use xlink:href="#DejaVuSans-Bold-61" x="449.609375"/>
       <use xlink:href="#DejaVuSans-Bold-6e" x="517.089844"/>
       <use xlink:href="#DejaVuSans-Bold-67" x="588.28125"/>
       <use xlink:href="#DejaVuSans-Bold-65" x="659.863281"/>
       <use xlink:href="#DejaVuSans-Bold-73" x="727.685547"/>
      </g>
     </g>
    </g>
    <g id="xtick_5">
     <g id="line2d_5">
      <path d="M 329.002688 263.788 
L 399.087742 479.487618 
" clip-path="url(#p6f2ffd03c8)" style="fill: none; stroke: #b0b0b0; stroke-width: 0.8; stroke-linecap: square"/>
     </g>
     <g id="text_5">
      <!-- Crash Steps -->
      <g transform="translate(359.575542 496.389597) scale(0.13 -0.13)">
       <defs>
        <path id="DejaVuSans-Bold-72" d="M 3138 2547 
Q 2991 2616 2845 2648 
Q 2700 2681 2553 2681 
Q 2122 2681 1889 2404 
Q 1656 2128 1656 1613 
L 1656 0 
L 538 0 
L 538 3500 
L 1656 3500 
L 1656 2925 
Q 1872 3269 2151 3426 
Q 2431 3584 2822 3584 
Q 2878 3584 2943 3579 
Q 3009 3575 3134 3559 
L 3138 2547 
z
" transform="scale(0.015625)"/>
       </defs>
       <use xlink:href="#DejaVuSans-Bold-43"/>
       <use xlink:href="#DejaVuSans-Bold-72" x="73.388672"/>
       <use xlink:href="#DejaVuSans-Bold-61" x="122.705078"/>
       <use xlink:href="#DejaVuSans-Bold-73" x="190.185547"/>
       <use xlink:href="#DejaVuSans-Bold-68" x="249.707031"/>
       <use xlink:href="#DejaVuSans-Bold-20" x="320.898438"/>
       <use xlink:href="#DejaVuSans-Bold-53" x="355.712891"/>
       <use xlink:href="#DejaVuSans-Bold-74" x="427.734375"/>
       <use xlink:href="#DejaVuSans-Bold-65" x="475.537109"/>
       <use xlink:href="#DejaVuSans-Bold-70" x="543.359375"/>
       <use xlink:href="#DejaVuSans-Bold-73" x="614.941406"/>
      </g>
     </g>
    </g>
   </g>
   <g id="matplotlib.axis_2">
    <g id="ytick_1">
     <g id="line2d_6">
      <path d="M 380.548142 263.788 
C 380.548142 257.019113 379.214819 250.316045 376.624478 244.062409 
C 374.034137 237.808772 370.237154 232.126186 365.450828 227.33986 
C 360.664502 222.553534 354.981915 218.75655 348.728279 216.16621 
C 342.474643 213.575869 335.771575 212.242545 329.002688 212.242545 
C 322.2338 212.242545 315.530732 213.575869 309.277096 216.16621 
C 303.02346 218.75655 297.340873 222.553534 292.554547 227.33986 
C 287.768221 232.126186 283.971238 237.808772 281.380897 244.062409 
C 278.790556 250.316045 277.457233 257.019113 277.457233 263.788 
C 277.457233 270.556887 278.790556 277.259955 281.380897 283.513591 
C 283.971238 289.767228 287.768221 295.449814 292.554547 300.23614 
C 297.340873 305.022466 303.02346 308.81945 309.277096 311.40979 
C 315.530732 314.000131 322.2338 315.333455 329.002688 315.333455 
C 335.771575 315.333455 342.474643 314.000131 348.728279 311.40979 
C 354.981915 308.81945 360.664502 305.022466 365.450828 300.23614 
C 370.237154 295.449814 374.034137 289.767228 376.624478 283.513591 
C 379.214819 277.259955 380.548142 270.556887 380.548142 263.788 
" clip-path="url(#p6f2ffd03c8)" style="fill: none; stroke: #808080; stroke-opacity: 0.3; stroke-width: 0.8; stroke-linecap: square"/>
     </g>
    </g>
    <g id="ytick_2">
     <g id="line2d_7">
      <path d="M 432.093597 263.788 
C 432.093597 250.250226 429.42695 236.84409 424.246268 224.336817 
C 419.065587 211.829545 411.47162 200.464371 401.898968 190.891719 
C 392.326316 181.319067 380.961143 173.725101 368.45387 168.544419 
C 355.946598 163.363737 342.540462 160.697091 329.002688 160.697091 
C 315.464913 160.697091 302.058777 163.363737 289.551505 168.544419 
C 277.044232 173.725101 265.679059 181.319067 256.106407 190.891719 
C 246.533755 200.464371 238.939788 211.829545 233.759107 224.336817 
C 228.578425 236.84409 225.911778 250.250226 225.911778 263.788 
C 225.911778 277.325774 228.578425 290.73191 233.759107 303.239183 
C 238.939788 315.746455 246.533755 327.111629 256.106407 336.684281 
C 265.679059 346.256933 277.044232 353.850899 289.551505 359.031581 
C 302.058777 364.212263 315.464913 366.878909 329.002688 366.878909 
C 342.540462 366.878909 355.946598 364.212263 368.45387 359.031581 
C 380.961143 353.850899 392.326316 346.256933 401.898968 336.684281 
C 411.47162 327.111629 419.065587 315.746455 424.246268 303.239183 
C 429.42695 290.73191 432.093597 277.325774 432.093597 263.788 
" clip-path="url(#p6f2ffd03c8)" style="fill: none; stroke: #808080; stroke-opacity: 0.3; stroke-width: 0.8; stroke-linecap: square"/>
     </g>
    </g>
    <g id="ytick_3">
     <g id="line2d_8">
      <path d="M 483.639051 263.788 
C 483.639051 243.481339 479.639082 223.372134 471.868059 204.611226 
C 464.097036 185.850317 452.706087 168.802557 438.347109 154.443579 
C 423.988131 140.084601 406.940371 128.693651 388.179462 120.922629 
C 369.418553 113.151606 349.309349 109.151636 329.002688 109.151636 
C 308.696026 109.151636 288.586822 113.151606 269.825913 120.922629 
C 251.065004 128.693651 234.017244 140.084601 219.658266 154.443579 
C 205.299288 168.802557 193.908339 185.850317 186.137316 204.611226 
C 178.366293 223.372134 174.366324 243.481339 174.366324 263.788 
C 174.366324 284.094661 178.366293 304.203866 186.137316 322.964774 
C 193.908339 341.725683 205.299288 358.773443 219.658266 373.132421 
C 234.017244 387.491399 251.065004 398.882349 269.825913 406.653371 
C 288.586822 414.424394 308.696026 418.424364 329.002688 418.424364 
C 349.309349 418.424364 369.418553 414.424394 388.179462 406.653371 
C 406.940371 398.882349 423.988131 387.491399 438.347109 373.132421 
C 452.706087 358.773443 464.097036 341.725683 471.868059 322.964774 
C 479.639082 304.203866 483.639051 284.094661 483.639051 263.788 
" clip-path="url(#p6f2ffd03c8)" style="fill: none; stroke: #808080; stroke-opacity: 0.3; stroke-width: 0.8; stroke-linecap: square"/>
     </g>
    </g>
    <g id="ytick_4">
     <g id="line2d_9">
      <path d="M 535.184506 263.788 
C 535.184506 236.712452 529.851213 209.900179 519.489849 184.885634 
C 509.128486 159.871089 493.940553 137.140742 474.795249 117.995438 
C 455.649945 98.850134 432.919598 83.662202 407.905053 73.300838 
C 382.890508 62.939474 356.078236 57.606182 329.002688 57.606182 
C 301.927139 57.606182 275.114867 62.939474 250.100322 73.300838 
C 225.085777 83.662202 202.35543 98.850134 183.210126 117.995438 
C 164.064822 137.140742 148.876889 159.871089 138.515526 184.885634 
C 128.154162 209.900179 122.820869 236.712452 122.820869 263.788 
C 122.820869 290.863548 128.154162 317.675821 138.515526 342.690366 
C 148.876889 367.704911 164.064822 390.435258 183.210126 409.580562 
C 202.35543 428.725866 225.085777 443.913798 250.100322 454.275162 
C 275.114867 464.636526 301.927139 469.969818 329.002688 469.969818 
C 356.078236 469.969818 382.890508 464.636526 407.905053 454.275162 
C 432.919598 443.913798 455.649945 428.725866 474.795249 409.580562 
C 493.940553 390.435258 509.128486 367.704911 519.489849 342.690366 
C 529.851213 317.675821 535.184506 290.863548 535.184506 263.788 
" clip-path="url(#p6f2ffd03c8)" style="fill: none; stroke: #808080; stroke-opacity: 0.3; stroke-width: 0.8; stroke-linecap: square"/>
     </g>
    </g>
   </g>
   <g id="line2d_10">
    <path d="M 535.184506 263.788 
L 392.716373 67.697438 
L 303.981998 245.609405 
L 162.198093 384.978632 
L 338.55974 293.201584 
L 535.184506 263.788 
" clip-path="url(#p6f2ffd03c8)" style="fill: none; stroke: #285a48; stroke-width: 2.5; stroke-linecap: square"/>
    <defs>
     <path id="mb82832199d" d="M 0 3 
C 0.795609 3 1.55874 2.683901 2.12132 2.12132 
C 2.683901 1.55874 3 0.795609 3 0 
C 3 -0.795609 2.683901 -1.55874 2.12132 -2.12132 
C 1.55874 -2.683901 0.795609 -3 0 -3 
C -0.795609 -3 -1.55874 -2.683901 -2.12132 -2.12132 
C -2.683901 -1.55874 -3 -0.795609 -3 0 
C -3 0.795609 -2.683901 1.55874 -2.12132 2.12132 
C -1.55874 2.683901 -0.795609 3 0 3 
z
" style="stroke: #285a48"/>
    </defs>
    <g clip-path="url(#p6f2ffd03c8)">
     <use xlink:href="#mb82832199d" x="535.184506" y="263.788" style="fill: #285a48; stroke: #285a48"/>
     <use xlink:href="#mb82832199d" x="392.716373" y="67.697438" style="fill: #285a48; stroke: #285a48"/>
     <use xlink:href="#mb82832199d" x="303.981998" y="245.609405" style="fill: #285a48; stroke: #285a48"/>
     <use xlink:href="#mb82832199d" x="162.198093" y="384.978632" style="fill: #285a48; stroke: #285a48"/>
     <use xlink:href="#mb82832199d" x="338.55974" y="293.201584" style="fill: #285a48; stroke: #285a48"/>
     <use xlink:href="#mb82832199d" x="535.184506" y="263.788" style="fill: #285a48; stroke: #285a48"/>
    </g>
   </g>
   <g id="line2d_11">
    <path d="M 359.92996 263.788 
L 338.55974 234.374416 
L 162.198093 142.597368 
L 303.981998 281.966595 
L 392.716373 459.878562 
L 359.92996 263.788 
" clip-path="url(#p6f2ffd03c8)" style="fill: none; stroke: #4d2fb2; stroke-width: 2.5; stroke-linecap: square"/>
    <defs>
     <path id="m752378b2b2" d="M -3 3 
L 3 3 
L 3 -3 
L -3 -3 
z
" style="stroke: #4d2fb2; stroke-linejoin: miter"/>
    </defs>
    <g clip-path="url(#p6f2ffd03c8)">
     <use xlink:href="#m752378b2b2" x="359.92996" y="263.788" style="fill: #4d2fb2; stroke: #4d2fb2; stroke-linejoin: miter"/>
     <use xlink:href="#m752378b2b2" x="338.55974" y="234.374416" style="fill: #4d2fb2; stroke: #4d2fb2; stroke-linejoin: miter"/>
     <use xlink:href="#m752378b2b2" x="162.198093" y="142.597368" style="fill: #4d2fb2; stroke: #4d2fb2; stroke-linejoin: miter"/>
     <use xlink:href="#m752378b2b2" x="303.981998" y="281.966595" style="fill: #4d2fb2; stroke: #4d2fb2; stroke-linejoin: miter"/>
     <use xlink:href="#m752378b2b2" x="392.716373" y="459.878562" style="fill: #4d2fb2; stroke: #4d2fb2; stroke-linejoin: miter"/>
     <use xlink:href="#m752378b2b2" x="359.92996" y="263.788" style="fill: #4d2fb2; stroke: #4d2fb2; stroke-linejoin: miter"/>
    </g>
   </g>
   <g id="legend_1">
    <g id="patch_5">
     <path d="M 549.560031 49.263125 
L 660.102688 49.263125 
Q 662.702688 49.263125 662.702688 46.663125 
L 662.702688 9.8 
Q 662.702688 7.2 660.102688 7.2 
L 549.560031 7.2 
Q 546.960031 7.2 546.960031 9.8 
L 546.960031 46.663125 
Q 546.960031 49.263125 549.560031 49.263125 
z
" style="fill: #ffffff; opacity: 0.8; stroke: #cccccc; stroke-linejoin: miter"/>
    </g>
    <g id="line2d_12">
     <path d="M 552.160031 17.727969 
L 565.160031 17.727969 
L 578.160031 17.727969 
" style="fill: none; stroke: #285a48; stroke-width: 2.5; stroke-linecap: square"/>
     <g>
      <use xlink:href="#mb82832199d" x="565.160031" y="17.727969" style="fill: #285a48; stroke: #285a48"/>
     </g>
    </g>
    <g id="text_6">
     <!-- Baseline -->
     <g transform="translate(588.560031 22.277969) scale(0.13 -0.13)">
      <defs>
       <path id="DejaVuSans-42" d="M 1259 2228 
L 1259 519 
L 2272 519 
Q 2781 519 3026 730 
Q 3272 941 3272 1375 
Q 3272 1813 3026 2020 
Q 2781 2228 2272 2228 
L 1259 2228 
z
M 1259 4147 
L 1259 2741 
L 2194 2741 
Q 2656 2741 2882 2914 
Q 3109 3088 3109 3444 
Q 3109 3797 2882 3972 
Q 2656 4147 2194 4147 
L 1259 4147 
z
M 628 4666 
L 2241 4666 
Q 2963 4666 3353 4366 
Q 3744 4066 3744 3513 
Q 3744 3084 3544 2831 
Q 3344 2578 2956 2516 
Q 3422 2416 3680 2098 
Q 3938 1781 3938 1306 
Q 3938 681 3513 340 
Q 3088 0 2303 0 
L 628 0 
L 628 4666 
z
" transform="scale(0.015625)"/>
       <path id="DejaVuSans-61" d="M 2194 1759 
Q 1497 1759 1228 1600 
Q 959 1441 959 1056 
Q 959 750 1161 570 
Q 1363 391 1709 391 
Q 2188 391 2477 730 
Q 2766 1069 2766 1631 
L 2766 1759 
L 2194 1759 
z
M 3341 1997 
L 3341 0 
L 2766 0 
L 2766 531 
Q 2569 213 2275 61 
Q 1981 -91 1556 -91 
Q 1019 -91 701 211 
Q 384 513 384 1019 
Q 384 1609 779 1909 
Q 1175 2209 1959 2209 
L 2766 2209 
L 2766 2266 
Q 2766 2663 2505 2880 
Q 2244 3097 1772 3097 
Q 1472 3097 1187 3025 
Q 903 2953 641 2809 
L 641 3341 
Q 956 3463 1253 3523 
Q 1550 3584 1831 3584 
Q 2591 3584 2966 3190 
Q 3341 2797 3341 1997 
z
" transform="scale(0.015625)"/>
       <path id="DejaVuSans-73" d="M 2834 3397 
L 2834 2853 
Q 2591 2978 2328 3040 
Q 2066 3103 1784 3103 
Q 1356 3103 1142 2972 
Q 928 2841 928 2578 
Q 928 2378 1081 2264 
Q 1234 2150 1697 2047 
L 1894 2003 
Q 2506 1872 2764 1633 
Q 3022 1394 3022 966 
Q 3022 478 2636 193 
Q 2250 -91 1575 -91 
Q 1294 -91 989 -36 
Q 684 19 347 128 
L 347 722 
Q 666 556 975 473 
Q 1284 391 1588 391 
Q 1994 391 2212 530 
Q 2431 669 2431 922 
Q 2431 1156 2273 1281 
Q 2116 1406 1581 1522 
L 1381 1569 
Q 847 1681 609 1914 
Q 372 2147 372 2553 
Q 372 3047 722 3315 
Q 1072 3584 1716 3584 
Q 2034 3584 2315 3537 
Q 2597 3491 2834 3397 
z
" transform="scale(0.015625)"/>
       <path id="DejaVuSans-65" d="M 3597 1894 
L 3597 1613 
L 953 1613 
Q 991 1019 1311 708 
Q 1631 397 2203 397 
Q 2534 397 2845 478 
Q 3156 559 3463 722 
L 3463 178 
Q 3153 47 2828 -22 
Q 2503 -91 2169 -91 
Q 1331 -91 842 396 
Q 353 884 353 1716 
Q 353 2575 817 3079 
Q 1281 3584 2069 3584 
Q 2775 3584 3186 3129 
Q 3597 2675 3597 1894 
z
M 3022 2063 
Q 3016 2534 2758 2815 
Q 2500 3097 2075 3097 
Q 1594 3097 1305 2825 
Q 1016 2553 972 2059 
L 3022 2063 
z
" transform="scale(0.015625)"/>
       <path id="DejaVuSans-6c" d="M 603 4863 
L 1178 4863 
L 1178 0 
L 603 0 
L 603 4863 
z
" transform="scale(0.015625)"/>
       <path id="DejaVuSans-69" d="M 603 3500 
L 1178 3500 
L 1178 0 
L 603 0 
L 603 3500 
z
M 603 4863 
L 1178 4863 
L 1178 4134 
L 603 4134 
L 603 4863 
z
" transform="scale(0.015625)"/>
       <path id="DejaVuSans-6e" d="M 3513 2113 
L 3513 0 
L 2938 0 
L 2938 2094 
Q 2938 2591 2744 2837 
Q 2550 3084 2163 3084 
Q 1697 3084 1428 2787 
Q 1159 2491 1159 1978 
L 1159 0 
L 581 0 
L 581 3500 
L 1159 3500 
L 1159 2956 
Q 1366 3272 1645 3428 
Q 1925 3584 2291 3584 
Q 2894 3584 3203 3211 
Q 3513 2838 3513 2113 
z
" transform="scale(0.015625)"/>
      </defs>
      <use xlink:href="#DejaVuSans-42"/>
      <use xlink:href="#DejaVuSans-61" x="68.603516"/>
      <use xlink:href="#DejaVuSans-73" x="129.882812"/>
      <use xlink:href="#DejaVuSans-65" x="181.982422"/>
      <use xlink:href="#DejaVuSans-6c" x="243.505859"/>
      <use xlink:href="#DejaVuSans-69" x="271.289062"/>
      <use xlink:href="#DejaVuSans-6e" x="299.072266"/>
      <use xlink:href="#DejaVuSans-65" x="362.451172"/>
     </g>
    </g>
    <g id="line2d_13">
     <path d="M 552.160031 36.809531 
L 565.160031 36.809531 
L 578.160031 36.809531 
" style="fill: none; stroke: #4d2fb2; stroke-width: 2.5; stroke-linecap: square"/>
     <g>
      <use xlink:href="#m752378b2b2" x="565.160031" y="36.809531" style="fill: #4d2fb2; stroke: #4d2fb2; stroke-linejoin: miter"/>
     </g>
    </g>
    <g id="text_7">
     <!-- VLM (safe) -->
     <g transform="translate(588.560031 41.359531) scale(0.13 -0.13)">
      <defs>
       <path id="DejaVuSans-56" d="M 1831 0 
L 50 4666 
L 709 4666 
L 2188 738 
L 3669 4666 
L 4325 4666 
L 2547 0 
L 1831 0 
z
" transform="scale(0.015625)"/>
       <path id="DejaVuSans-4c" d="M 628 4666 
L 1259 4666 
L 1259 531 
L 3531 531 
L 3531 0 
L 628 0 
L 628 4666 
z
" transform="scale(0.015625)"/>
       <path id="DejaVuSans-4d" d="M 628 4666 
L 1569 4666 
L 2759 1491 
L 3956 4666 
L 4897 4666 
L 4897 0 
L 4281 0 
L 4281 4097 
L 3078 897 
L 2444 897 
L 1241 4097 
L 1241 0 
L 628 0 
L 628 4666 
z
" transform="scale(0.015625)"/>
       <path id="DejaVuSans-20" transform="scale(0.015625)"/>
       <path id="DejaVuSans-28" d="M 1984 4856 
Q 1566 4138 1362 3434 
Q 1159 2731 1159 2009 
Q 1159 1288 1364 580 
Q 1569 -128 1984 -844 
L 1484 -844 
Q 1016 -109 783 600 
Q 550 1309 550 2009 
Q 550 2706 781 3412 
Q 1013 4119 1484 4856 
L 1984 4856 
z
" transform="scale(0.015625)"/>
       <path id="DejaVuSans-66" d="M 2375 4863 
L 2375 4384 
L 1825 4384 
Q 1516 4384 1395 4259 
Q 1275 4134 1275 3809 
L 1275 3500 
L 2222 3500 
L 2222 3053 
L 1275 3053 
L 1275 0 
L 697 0 
L 697 3053 
L 147 3053 
L 147 3500 
L 697 3500 
L 697 3744 
Q 697 4328 969 4595 
Q 1241 4863 1831 4863 
L 2375 4863 
z
" transform="scale(0.015625)"/>
       <path id="DejaVuSans-29" d="M 513 4856 
L 1013 4856 
Q 1481 4119 1714 3412 
Q 1947 2706 1947 2009 
Q 1947 1309 1714 600 
Q 1481 -109 1013 -844 
L 513 -844 
Q 928 -128 1133 580 
Q 1338 1288 1338 2009 
Q 1338 2731 1133 3434 
Q 928 4138 513 4856 
z
" transform="scale(0.015625)"/>
      </defs>
      <use xlink:href="#DejaVuSans-56"/>
      <use xlink:href="#DejaVuSans-4c" x="68.408203"/>
      <use xlink:href="#DejaVuSans-4d" x="124.121094"/>
      <use xlink:href="#DejaVuSans-20" x="210.400391"/>
      <use xlink:href="#DejaVuSans-28" x="242.1875"/>
      <use xlink:href="#DejaVuSans-73" x="281.201172"/>
      <use xlink:href="#DejaVuSans-61" x="333.300781"/>
      <use xlink:href="#DejaVuSans-66" x="394.580078"/>
      <use xlink:href="#DejaVuSans-65" x="429.785156"/>
      <use xlink:href="#DejaVuSans-29" x="491.308594"/>
     </g>
    </g>
   </g>
  </g>
  <g id="axes_2">
   <g id="table_1">
    <g id="patch_6">
     <path d="M 87.082688 585.268 
L 183.850688 585.268 
L 183.850688 567.268 
L 87.082688 567.268 
z
" style="fill: #ffffff; stroke: #cccccc; stroke-linejoin: miter"/>
    </g>
    <g id="text_8">
     <!-- Avg Speed -->
     <g transform="translate(102.677234 579.260344) scale(0.11 -0.11)">
      <use xlink:href="#DejaVuSans-Bold-41"/>
      <use xlink:href="#DejaVuSans-Bold-76" x="73.767578"/>
      <use xlink:href="#DejaVuSans-Bold-67" x="138.953125"/>
      <use xlink:href="#DejaVuSans-Bold-20" x="210.535156"/>
      <use xlink:href="#DejaVuSans-Bold-53" x="245.349609"/>
      <use xlink:href="#DejaVuSans-Bold-70" x="317.371094"/>
      <use xlink:href="#DejaVuSans-Bold-65" x="388.953125"/>
      <use xlink:href="#DejaVuSans-Bold-65" x="456.775391"/>
      <use xlink:href="#DejaVuSans-Bold-64" x="524.597656"/>
     </g>
    </g>
    <g id="patch_7">
     <path d="M 183.850688 585.268 
L 280.618688 585.268 
L 280.618688 567.268 
L 183.850688 567.268 
z
" style="fill: #ffffff; stroke: #cccccc; stroke-linejoin: miter"/>
    </g>
    <g id="text_9">
     <!-- Total Steps -->
     <g transform="translate(197.761719 579.303312) scale(0.11 -0.11)">
      <use xlink:href="#DejaVuSans-Bold-54"/>
      <use xlink:href="#DejaVuSans-Bold-6f" x="54.962891"/>
      <use xlink:href="#DejaVuSans-Bold-74" x="123.664062"/>
      <use xlink:href="#DejaVuSans-Bold-61" x="171.466797"/>
      <use xlink:href="#DejaVuSans-Bold-6c" x="238.947266"/>
      <use xlink:href="#DejaVuSans-Bold-20" x="273.224609"/>
      <use xlink:href="#DejaVuSans-Bold-53" x="308.039062"/>
      <use xlink:href="#DejaVuSans-Bold-74" x="380.060547"/>
      <use xlink:href="#DejaVuSans-Bold-65" x="427.863281"/>
      <use xlink:href="#DejaVuSans-Bold-70" x="495.685547"/>
      <use xlink:href="#DejaVuSans-Bold-73" x="567.267578"/>
     </g>
    </g>
    <g id="patch_8">
     <path d="M 280.618688 585.268 
L 377.386688 585.268 
L 377.386688 567.268 
L 280.618688 567.268 
z
" style="fill: #ffffff; stroke: #cccccc; stroke-linejoin: miter"/>
    </g>
    <g id="text_10">
     <!-- Smoothness -->
     <g transform="translate(291.016594 579.303312) scale(0.11 -0.11)">
      <use xlink:href="#DejaVuSans-Bold-53"/>
      <use xlink:href="#DejaVuSans-Bold-6d" x="72.021484"/>
      <use xlink:href="#DejaVuSans-Bold-6f" x="176.220703"/>
      <use xlink:href="#DejaVuSans-Bold-6f" x="244.921875"/>
      <use xlink:href="#DejaVuSans-Bold-74" x="313.623047"/>
      <use xlink:href="#DejaVuSans-Bold-68" x="361.425781"/>
      <use xlink:href="#DejaVuSans-Bold-6e" x="432.617188"/>
      <use xlink:href="#DejaVuSans-Bold-65" x="503.808594"/>
      <use xlink:href="#DejaVuSans-Bold-73" x="571.630859"/>
      <use xlink:href="#DejaVuSans-Bold-73" x="631.152344"/>
     </g>
    </g>
    <g id="patch_9">
     <path d="M 377.386688 585.268 
L 474.154688 585.268 
L 474.154688 567.268 
L 377.386688 567.268 
z
" style="fill: #ffffff; stroke: #cccccc; stroke-linejoin: miter"/>
    </g>
    <g id="text_11">
     <!-- Lane Changes -->
     <g transform="translate(382.474516 579.260344) scale(0.11 -0.11)">
      <use xlink:href="#DejaVuSans-Bold-4c"/>
      <use xlink:href="#DejaVuSans-Bold-61" x="63.720703"/>
      <use xlink:href="#DejaVuSans-Bold-6e" x="131.201172"/>
      <use xlink:href="#DejaVuSans-Bold-65" x="202.392578"/>
      <use xlink:href="#DejaVuSans-Bold-20" x="270.214844"/>
      <use xlink:href="#DejaVuSans-Bold-43" x="305.029297"/>
      <use xlink:href="#DejaVuSans-Bold-68" x="378.417969"/>
      <use xlink:href="#DejaVuSans-Bold-61" x="449.609375"/>
      <use xlink:href="#DejaVuSans-Bold-6e" x="517.089844"/>
      <use xlink:href="#DejaVuSans-Bold-67" x="588.28125"/>
      <use xlink:href="#DejaVuSans-Bold-65" x="659.863281"/>
      <use xlink:href="#DejaVuSans-Bold-73" x="727.685547"/>
     </g>
    </g>
    <g id="patch_10">
     <path d="M 474.154688 585.268 
L 570.922688 585.268 
L 570.922688 567.268 
L 474.154688 567.268 
z
" style="fill: #ffffff; stroke: #cccccc; stroke-linejoin: miter"/>
    </g>
    <g id="text_12">
     <!-- Crash Steps -->
     <g transform="translate(485.444625 579.303312) scale(0.11 -0.11)">
      <use xlink:href="#DejaVuSans-Bold-43"/>
      <use xlink:href="#DejaVuSans-Bold-72" x="73.388672"/>
      <use xlink:href="#DejaVuSans-Bold-61" x="122.705078"/>
      <use xlink:href="#DejaVuSans-Bold-73" x="190.185547"/>
      <use xlink:href="#DejaVuSans-Bold-68" x="249.707031"/>
      <use xlink:href="#DejaVuSans-Bold-20" x="320.898438"/>
      <use xlink:href="#DejaVuSans-Bold-53" x="355.712891"/>
      <use xlink:href="#DejaVuSans-Bold-74" x="427.734375"/>
      <use xlink:href="#DejaVuSans-Bold-65" x="475.537109"/>
      <use xlink:href="#DejaVuSans-Bold-70" x="543.359375"/>
      <use xlink:href="#DejaVuSans-Bold-73" x="614.941406"/>
     </g>
    </g>
    <g id="patch_11">
     <path d="M 7.2 603.268 
L 87.082688 603.268 
L 87.082688 585.268 
L 7.2 585.268 
z
" style="fill: #ffffff; stroke: #cccccc; stroke-linejoin: miter"/>
    </g>
    <g id="text_13">
     <!-- Baseline -->
     <g style="fill: #285a48" transform="translate(15.188269 597.303312) scale(0.11 -0.11)">
      <defs>
       <path id="DejaVuSans-Bold-42" d="M 2456 2859 
Q 2741 2859 2887 2984 
Q 3034 3109 3034 3353 
Q 3034 3594 2887 3720 
Q 2741 3847 2456 3847 
L 1791 3847 
L 1791 2859 
L 2456 2859 
z
M 2497 819 
Q 2859 819 3042 972 
Q 3225 1125 3225 1434 
Q 3225 1738 3044 1889 
Q 2863 2041 2497 2041 
L 1791 2041 
L 1791 819 
L 2497 819 
z
M 3616 2497 
Q 4003 2384 4215 2081 
Q 4428 1778 4428 1338 
Q 4428 663 3972 331 
Q 3516 0 2584 0 
L 588 0 
L 588 4666 
L 2394 4666 
Q 3366 4666 3802 4372 
Q 4238 4078 4238 3431 
Q 4238 3091 4078 2852 
Q 3919 2613 3616 2497 
z
" transform="scale(0.015625)"/>
       <path id="DejaVuSans-Bold-69" d="M 538 3500 
L 1656 3500 
L 1656 0 
L 538 0 
L 538 3500 
z
M 538 4863 
L 1656 4863 
L 1656 3950 
L 538 3950 
L 538 4863 
z
" transform="scale(0.015625)"/>
      </defs>
      <use xlink:href="#DejaVuSans-Bold-42"/>
      <use xlink:href="#DejaVuSans-Bold-61" x="76.220703"/>
      <use xlink:href="#DejaVuSans-Bold-73" x="143.701172"/>
      <use xlink:href="#DejaVuSans-Bold-65" x="203.222656"/>
      <use xlink:href="#DejaVuSans-Bold-6c" x="271.044922"/>
      <use xlink:href="#DejaVuSans-Bold-69" x="305.322266"/>
      <use xlink:href="#DejaVuSans-Bold-6e" x="339.599609"/>
      <use xlink:href="#DejaVuSans-Bold-65" x="410.791016"/>
     </g>
    </g>
    <g id="patch_12">
     <path d="M 87.082688 603.268 
L 183.850688 603.268 
L 183.850688 585.268 
L 87.082688 585.268 
z
" style="fill: #ffffff; stroke: #cccccc; stroke-linejoin: miter"/>
    </g>
    <g id="text_14">
     <!-- 40.1 -->
     <g transform="translate(123.220594 597.303312) scale(0.11 -0.11)">
      <defs>
       <path id="DejaVuSans-34" d="M 2419 4116 
L 825 1625 
L 2419 1625 
L 2419 4116 
z
M 2253 4666 
L 3047 4666 
L 3047 1625 
L 3713 1625 
L 3713 1100 
L 3047 1100 
L 3047 0 
L 2419 0 
L 2419 1100 
L 313 1100 
L 313 1709 
L 2253 4666 
z
" transform="scale(0.015625)"/>
       <path id="DejaVuSans-30" d="M 2034 4250 
Q 1547 4250 1301 3770 
Q 1056 3291 1056 2328 
Q 1056 1369 1301 889 
Q 1547 409 2034 409 
Q 2525 409 2770 889 
Q 3016 1369 3016 2328 
Q 3016 3291 2770 3770 
Q 2525 4250 2034 4250 
z
M 2034 4750 
Q 2819 4750 3233 4129 
Q 3647 3509 3647 2328 
Q 3647 1150 3233 529 
Q 2819 -91 2034 -91 
Q 1250 -91 836 529 
Q 422 1150 422 2328 
Q 422 3509 836 4129 
Q 1250 4750 2034 4750 
z
" transform="scale(0.015625)"/>
       <path id="DejaVuSans-2e" d="M 684 794 
L 1344 794 
L 1344 0 
L 684 0 
L 684 794 
z
" transform="scale(0.015625)"/>
       <path id="DejaVuSans-31" d="M 794 531 
L 1825 531 
L 1825 4091 
L 703 3866 
L 703 4441 
L 1819 4666 
L 2450 4666 
L 2450 531 
L 3481 531 
L 3481 0 
L 794 0 
L 794 531 
z
" transform="scale(0.015625)"/>
      </defs>
      <use xlink:href="#DejaVuSans-34"/>
      <use xlink:href="#DejaVuSans-30" x="63.623047"/>
      <use xlink:href="#DejaVuSans-2e" x="127.246094"/>
      <use xlink:href="#DejaVuSans-31" x="159.033203"/>
     </g>
    </g>
    <g id="patch_13">
     <path d="M 183.850688 603.268 
L 280.618688 603.268 
L 280.618688 585.268 
L 183.850688 585.268 
z
" style="fill: #ffffff; stroke: #cccccc; stroke-linejoin: miter"/>
    </g>
    <g id="text_15">
     <!-- 599.8 -->
     <g transform="translate(216.489219 597.303312) scale(0.11 -0.11)">
      <defs>
       <path id="DejaVuSans-35" d="M 691 4666 
L 3169 4666 
L 3169 4134 
L 1269 4134 
L 1269 2991 
Q 1406 3038 1543 3061 
Q 1681 3084 1819 3084 
Q 2600 3084 3056 2656 
Q 3513 2228 3513 1497 
Q 3513 744 3044 326 
Q 2575 -91 1722 -91 
Q 1428 -91 1123 -41 
Q 819 9 494 109 
L 494 744 
Q 775 591 1075 516 
Q 1375 441 1709 441 
Q 2250 441 2565 725 
Q 2881 1009 2881 1497 
Q 2881 1984 2565 2268 
Q 2250 2553 1709 2553 
Q 1456 2553 1204 2497 
Q 953 2441 691 2322 
L 691 4666 
z
" transform="scale(0.015625)"/>
       <path id="DejaVuSans-39" d="M 703 97 
L 703 672 
Q 941 559 1184 500 
Q 1428 441 1663 441 
Q 2288 441 2617 861 
Q 2947 1281 2994 2138 
Q 2813 1869 2534 1725 
Q 2256 1581 1919 1581 
Q 1219 1581 811 2004 
Q 403 2428 403 3163 
Q 403 3881 828 4315 
Q 1253 4750 1959 4750 
Q 2769 4750 3195 4129 
Q 3622 3509 3622 2328 
Q 3622 1225 3098 567 
Q 2575 -91 1691 -91 
Q 1453 -91 1209 -44 
Q 966 3 703 97 
z
M 1959 2075 
Q 2384 2075 2632 2365 
Q 2881 2656 2881 3163 
Q 2881 3666 2632 3958 
Q 2384 4250 1959 4250 
Q 1534 4250 1286 3958 
Q 1038 3666 1038 3163 
Q 1038 2656 1286 2365 
Q 1534 2075 1959 2075 
z
" transform="scale(0.015625)"/>
       <path id="DejaVuSans-38" d="M 2034 2216 
Q 1584 2216 1326 1975 
Q 1069 1734 1069 1313 
Q 1069 891 1326 650 
Q 1584 409 2034 409 
Q 2484 409 2743 651 
Q 3003 894 3003 1313 
Q 3003 1734 2745 1975 
Q 2488 2216 2034 2216 
z
M 1403 2484 
Q 997 2584 770 2862 
Q 544 3141 544 3541 
Q 544 4100 942 4425 
Q 1341 4750 2034 4750 
Q 2731 4750 3128 4425 
Q 3525 4100 3525 3541 
Q 3525 3141 3298 2862 
Q 3072 2584 2669 2484 
Q 3125 2378 3379 2068 
Q 3634 1759 3634 1313 
Q 3634 634 3220 271 
Q 2806 -91 2034 -91 
Q 1263 -91 848 271 
Q 434 634 434 1313 
Q 434 1759 690 2068 
Q 947 2378 1403 2484 
z
M 1172 3481 
Q 1172 3119 1398 2916 
Q 1625 2713 2034 2713 
Q 2441 2713 2670 2916 
Q 2900 3119 2900 3481 
Q 2900 3844 2670 4047 
Q 2441 4250 2034 4250 
Q 1625 4250 1398 4047 
Q 1172 3844 1172 3481 
z
" transform="scale(0.015625)"/>
      </defs>
      <use xlink:href="#DejaVuSans-35"/>
      <use xlink:href="#DejaVuSans-39" x="63.623047"/>
      <use xlink:href="#DejaVuSans-39" x="127.246094"/>
      <use xlink:href="#DejaVuSans-2e" x="190.869141"/>
      <use xlink:href="#DejaVuSans-38" x="222.65625"/>
     </g>
    </g>
    <g id="patch_14">
     <path d="M 280.618688 603.268 
L 377.386688 603.268 
L 377.386688 585.268 
L 280.618688 585.268 
z
" style="fill: #ffffff; stroke: #cccccc; stroke-linejoin: miter"/>
    </g>
    <g id="text_16">
     <!-- 1.022 -->
     <g transform="translate(313.257219 597.303312) scale(0.11 -0.11)">
      <defs>
       <path id="DejaVuSans-32" d="M 1228 531 
L 3431 531 
L 3431 0 
L 469 0 
L 469 531 
Q 828 903 1448 1529 
Q 2069 2156 2228 2338 
Q 2531 2678 2651 2914 
Q 2772 3150 2772 3378 
Q 2772 3750 2511 3984 
Q 2250 4219 1831 4219 
Q 1534 4219 1204 4116 
Q 875 4013 500 3803 
L 500 4441 
Q 881 4594 1212 4672 
Q 1544 4750 1819 4750 
Q 2544 4750 2975 4387 
Q 3406 4025 3406 3419 
Q 3406 3131 3298 2873 
Q 3191 2616 2906 2266 
Q 2828 2175 2409 1742 
Q 1991 1309 1228 531 
z
" transform="scale(0.015625)"/>
      </defs>
      <use xlink:href="#DejaVuSans-31"/>
      <use xlink:href="#DejaVuSans-2e" x="63.623047"/>
      <use xlink:href="#DejaVuSans-30" x="95.410156"/>
      <use xlink:href="#DejaVuSans-32" x="159.033203"/>
      <use xlink:href="#DejaVuSans-32" x="222.65625"/>
     </g>
    </g>
    <g id="patch_15">
     <path d="M 377.386688 603.268 
L 474.154688 603.268 
L 474.154688 585.268 
L 377.386688 585.268 
z
" style="fill: #ffffff; stroke: #cccccc; stroke-linejoin: miter"/>
    </g>
    <g id="text_17">
     <!-- 17.5 -->
     <g transform="translate(413.524594 597.303312) scale(0.11 -0.11)">
      <defs>
       <path id="DejaVuSans-37" d="M 525 4666 
L 3525 4666 
L 3525 4397 
L 1831 0 
L 1172 0 
L 2766 4134 
L 525 4134 
L 525 4666 
z
" transform="scale(0.015625)"/>
      </defs>
      <use xlink:href="#DejaVuSans-31"/>
      <use xlink:href="#DejaVuSans-37" x="63.623047"/>
      <use xlink:href="#DejaVuSans-2e" x="127.246094"/>
      <use xlink:href="#DejaVuSans-35" x="159.033203"/>
     </g>
    </g>
    <g id="patch_16">
     <path d="M 474.154688 603.268 
L 570.922688 603.268 
L 570.922688 585.268 
L 474.154688 585.268 
z
" style="fill: #ffffff; stroke: #cccccc; stroke-linejoin: miter"/>
    </g>
    <g id="text_18">
     <!-- 9.2 -->
     <g transform="translate(513.791969 597.303312) scale(0.11 -0.11)">
      <use xlink:href="#DejaVuSans-39"/>
      <use xlink:href="#DejaVuSans-2e" x="63.623047"/>
      <use xlink:href="#DejaVuSans-32" x="95.410156"/>
     </g>
    </g>
    <g id="patch_17">
     <path d="M 7.2 621.268 
L 87.082688 621.268 
L 87.082688 603.268 
L 7.2 603.268 
z
" style="fill: #ffffff; stroke: #cccccc; stroke-linejoin: miter"/>
    </g>
    <g id="text_19">
     <!-- VLM (safe) -->
     <g style="fill: #4d2fb2" transform="translate(15.188269 615.303312) scale(0.11 -0.11)">
      <defs>
       <path id="DejaVuSans-Bold-56" d="M 31 4666 
L 1241 4666 
L 2478 1222 
L 3713 4666 
L 4922 4666 
L 3194 0 
L 1759 0 
L 31 4666 
z
" transform="scale(0.015625)"/>
       <path id="DejaVuSans-Bold-4d" d="M 588 4666 
L 2119 4666 
L 3181 2169 
L 4250 4666 
L 5778 4666 
L 5778 0 
L 4641 0 
L 4641 3413 
L 3566 897 
L 2803 897 
L 1728 3413 
L 1728 0 
L 588 0 
L 588 4666 
z
" transform="scale(0.015625)"/>
       <path id="DejaVuSans-Bold-28" d="M 2413 -844 
L 1484 -844 
Q 1006 -72 778 623 
Q 550 1319 550 2003 
Q 550 2688 779 3389 
Q 1009 4091 1484 4856 
L 2413 4856 
Q 2013 4116 1813 3408 
Q 1613 2700 1613 2009 
Q 1613 1319 1811 609 
Q 2009 -100 2413 -844 
z
" transform="scale(0.015625)"/>
       <path id="DejaVuSans-Bold-66" d="M 2841 4863 
L 2841 4128 
L 2222 4128 
Q 1984 4128 1890 4042 
Q 1797 3956 1797 3744 
L 1797 3500 
L 2753 3500 
L 2753 2700 
L 1797 2700 
L 1797 0 
L 678 0 
L 678 2700 
L 122 2700 
L 122 3500 
L 678 3500 
L 678 3744 
Q 678 4316 997 4589 
Q 1316 4863 1984 4863 
L 2841 4863 
z
" transform="scale(0.015625)"/>
       <path id="DejaVuSans-Bold-29" d="M 513 -844 
Q 913 -100 1113 609 
Q 1313 1319 1313 2009 
Q 1313 2700 1113 3408 
Q 913 4116 513 4856 
L 1441 4856 
Q 1916 4091 2145 3389 
Q 2375 2688 2375 2003 
Q 2375 1319 2147 623 
Q 1919 -72 1441 -844 
L 513 -844 
z
" transform="scale(0.015625)"/>
      </defs>
      <use xlink:href="#DejaVuSans-Bold-56"/>
      <use xlink:href="#DejaVuSans-Bold-4c" x="77.392578"/>
      <use xlink:href="#DejaVuSans-Bold-4d" x="141.113281"/>
      <use xlink:href="#DejaVuSans-Bold-20" x="240.625"/>
      <use xlink:href="#DejaVuSans-Bold-28" x="275.439453"/>
      <use xlink:href="#DejaVuSans-Bold-73" x="321.142578"/>
      <use xlink:href="#DejaVuSans-Bold-61" x="380.664062"/>
      <use xlink:href="#DejaVuSans-Bold-66" x="448.144531"/>
      <use xlink:href="#DejaVuSans-Bold-65" x="491.650391"/>
      <use xlink:href="#DejaVuSans-Bold-29" x="559.472656"/>
     </g>
    </g>
    <g id="patch_18">
     <path d="M 87.082688 621.268 
L 183.850688 621.268 
L 183.850688 603.268 
L 87.082688 603.268 
z
" style="fill: #ffffff; stroke: #cccccc; stroke-linejoin: miter"/>
    </g>
    <g id="text_20">
     <!-- 38.0 -->
     <g transform="translate(123.220594 615.303312) scale(0.11 -0.11)">
      <defs>
       <path id="DejaVuSans-33" d="M 2597 2516 
Q 3050 2419 3304 2112 
Q 3559 1806 3559 1356 
Q 3559 666 3084 287 
Q 2609 -91 1734 -91 
Q 1441 -91 1130 -33 
Q 819 25 488 141 
L 488 750 
Q 750 597 1062 519 
Q 1375 441 1716 441 
Q 2309 441 2620 675 
Q 2931 909 2931 1356 
Q 2931 1769 2642 2001 
Q 2353 2234 1838 2234 
L 1294 2234 
L 1294 2753 
L 1863 2753 
Q 2328 2753 2575 2939 
Q 2822 3125 2822 3475 
Q 2822 3834 2567 4026 
Q 2313 4219 1838 4219 
Q 1578 4219 1281 4162 
Q 984 4106 628 3988 
L 628 4550 
Q 988 4650 1302 4700 
Q 1616 4750 1894 4750 
Q 2613 4750 3031 4423 
Q 3450 4097 3450 3541 
Q 3450 3153 3228 2886 
Q 3006 2619 2597 2516 
z
" transform="scale(0.015625)"/>
      </defs>
      <use xlink:href="#DejaVuSans-33"/>
      <use xlink:href="#DejaVuSans-38" x="63.623047"/>
      <use xlink:href="#DejaVuSans-2e" x="127.246094"/>
      <use xlink:href="#DejaVuSans-30" x="159.033203"/>
     </g>
    </g>
    <g id="patch_19">
     <path d="M 183.850688 621.268 
L 280.618688 621.268 
L 280.618688 603.268 
L 183.850688 603.268 
z
" style="fill: #ffffff; stroke: #cccccc; stroke-linejoin: miter"/>
    </g>
    <g id="text_21">
     <!-- 629.0 -->
     <g transform="translate(216.489219 615.303312) scale(0.11 -0.11)">
      <defs>
       <path id="DejaVuSans-36" d="M 2113 2584 
Q 1688 2584 1439 2293 
Q 1191 2003 1191 1497 
Q 1191 994 1439 701 
Q 1688 409 2113 409 
Q 2538 409 2786 701 
Q 3034 994 3034 1497 
Q 3034 2003 2786 2293 
Q 2538 2584 2113 2584 
z
M 3366 4563 
L 3366 3988 
Q 3128 4100 2886 4159 
Q 2644 4219 2406 4219 
Q 1781 4219 1451 3797 
Q 1122 3375 1075 2522 
Q 1259 2794 1537 2939 
Q 1816 3084 2150 3084 
Q 2853 3084 3261 2657 
Q 3669 2231 3669 1497 
Q 3669 778 3244 343 
Q 2819 -91 2113 -91 
Q 1303 -91 875 529 
Q 447 1150 447 2328 
Q 447 3434 972 4092 
Q 1497 4750 2381 4750 
Q 2619 4750 2861 4703 
Q 3103 4656 3366 4563 
z
" transform="scale(0.015625)"/>
      </defs>
      <use xlink:href="#DejaVuSans-36"/>
      <use xlink:href="#DejaVuSans-32" x="63.623047"/>
      <use xlink:href="#DejaVuSans-39" x="127.246094"/>
      <use xlink:href="#DejaVuSans-2e" x="190.869141"/>
      <use xlink:href="#DejaVuSans-30" x="222.65625"/>
     </g>
    </g>
    <g id="patch_20">
     <path d="M 280.618688 621.268 
L 377.386688 621.268 
L 377.386688 603.268 
L 280.618688 603.268 
z
" style="fill: #ffffff; stroke: #cccccc; stroke-linejoin: miter"/>
    </g>
    <g id="text_22">
     <!-- 0.978 -->
     <g transform="translate(313.257219 615.303312) scale(0.11 -0.11)">
      <use xlink:href="#DejaVuSans-30"/>
      <use xlink:href="#DejaVuSans-2e" x="63.623047"/>
      <use xlink:href="#DejaVuSans-39" x="95.410156"/>
      <use xlink:href="#DejaVuSans-37" x="159.033203"/>
      <use xlink:href="#DejaVuSans-38" x="222.65625"/>
     </g>
    </g>
    <g id="patch_21">
     <path d="M 377.386688 621.268 
L 474.154688 621.268 
L 474.154688 603.268 
L 377.386688 603.268 
z
" style="fill: #ffffff; stroke: #cccccc; stroke-linejoin: miter"/>
    </g>
    <g id="text_23">
     <!-- 17.8 -->
     <g transform="translate(413.524594 615.303312) scale(0.11 -0.11)">
      <use xlink:href="#DejaVuSans-31"/>
      <use xlink:href="#DejaVuSans-37" x="63.623047"/>
      <use xlink:href="#DejaVuSans-2e" x="127.246094"/>
      <use xlink:href="#DejaVuSans-38" x="159.033203"/>
     </g>
    </g>
    <g id="patch_22">
     <path d="M 474.154688 621.268 
L 570.922688 621.268 
L 570.922688 603.268 
L 474.154688 603.268 
z
" style="fill: #ffffff; stroke: #cccccc; stroke-linejoin: miter"/>
    </g>
    <g id="text_24">
     <!-- 2.8 -->
     <g transform="translate(513.791969 615.303312) scale(0.11 -0.11)">
      <use xlink:href="#DejaVuSans-32"/>
      <use xlink:href="#DejaVuSans-2e" x="63.623047"/>
      <use xlink:href="#DejaVuSans-38" x="95.410156"/>
     </g>
    </g>
   </g>
  </g>
 </g>
 <defs>
  <clipPath id="p6f2ffd03c8">
   <path d="M 555.802688 263.788 
C 555.802688 234.004897 549.936066 204.511397 538.538565 176.995398 
C 527.141065 149.479398 510.43434 124.476016 489.374505 103.416182 
C 468.314671 82.356348 443.311289 65.649622 415.79529 54.252122 
C 388.279291 42.854622 358.785791 36.988 329.002688 36.988 
C 299.219584 36.988 269.726084 42.854622 242.210085 54.252122 
C 214.694086 65.649622 189.690704 82.356348 168.63087 103.416182 
C 147.571035 124.476016 130.86431 149.479398 119.46681 176.995398 
C 108.069309 204.511397 102.202688 234.004897 102.202688 263.788 
C 102.202688 293.571103 108.069309 323.064603 119.46681 350.580602 
C 130.86431 378.096602 147.571035 403.099984 168.63087 424.159818 
C 189.690704 445.219652 214.694086 461.926378 242.210085 473.323878 
C 269.726084 484.721378 299.219584 490.588 329.002688 490.588 
C 358.785791 490.588 388.279291 484.721378 415.79529 473.323878 
C 443.311289 461.926378 468.314671 445.219652 489.374505 424.159818 
C 510.43434 403.099984 527.141065 378.096602 538.538565 350.580602 
C 549.936066 323.064603 555.802688 293.571103 555.802688 263.788 
M 329.002688 263.788 
C 329.002688 263.788 329.002688 263.788 329.002688 263.788 
C 329.002688 263.788 329.002688 263.788 329.002688 263.788 
C 329.002688 263.788 329.002688 263.788 329.002688 263.788 
C 329.002688 263.788 329.002688 263.788 329.002688 263.788 
C 329.002688 263.788 329.002688 263.788 329.002688 263.788 
C 329.002688 263.788 329.002688 263.788 329.002688 263.788 
C 329.002688 263.788 329.002688 263.788 329.002688 263.788 
C 329.002688 263.788 329.002688 263.788 329.002688 263.788 
C 329.002688 263.788 329.002688 263.788 329.002688 263.788 
C 329.002688 263.788 329.002688 263.788 329.002688 263.788 
C 329.002688 263.788 329.002688 263.788 329.002688 263.788 
C 329.002688 263.788 329.002688 263.788 329.002688 263.788 
C 329.002688 263.788 329.002688 263.788 329.002688 263.788 
C 329.002688 263.788 329.002688 263.788 329.002688 263.788 
C 329.002688 263.788 329.002688 263.788 329.002688 263.788 
C 329.002688 263.788 329.002688 263.788 329.002688 263.788 
z
"/>
  </clipPath>
 </defs>
</svg>
